<?xml version="1.0" encoding="UTF-8" standalone="no"?>
<!-- Created with Inkscape (http://www.inkscape.org/) -->

<svg
   version="1.1"
   id="svg2"
   width="800"
   height="570.66669"
   viewBox="0 0 800 570.66669"
   xmlns="http://www.w3.org/2000/svg"
   xmlns:svg="http://www.w3.org/2000/svg">
  <defs
     id="defs6" />
  <g
     id="g8">
    <g
       id="g979">
      <path
         style="fill:#cb8a2a;stroke:#000000;stroke-width:1.933;stroke-dasharray:none;stroke-opacity:1"
         d="m 2.0889333,162.13761 c 0,0 159.1683267,-16.39729 238.7398467,26.36008 C 173.90452,331.92903 254.82064,438.33445 390.8646,570.22996 106.04334,576.91168 -12.005821,489.51013 2.0889333,162.13761 Z"
         id="path985" />
      <path
         style="fill:#3eac48;stroke:#000000;stroke-width:1.92494;stroke-dasharray:none;stroke-opacity:1"
         d="M 230.96262,286.51355 C 230.79581,176.02422 369.88467,33.603038 401.39632,1.3587521 433.59062,33.13509 568.81363,172.99329 569.03704,283.11324 569.26045,393.23319 493.10225,468.98526 400.73656,568.61806 317.24519,472.05864 231.12943,397.00288 230.96262,286.51355 Z"
         id="path983" />
      <path
         style="fill:#47753b;stroke:#000000;stroke-width:1.933;stroke-dasharray:none;stroke-opacity:1"
         d="M 410.78932,570.43322 C 533.59988,459.78759 624.704,337.4182 560.21883,188.75694 640.29338,157.12021 752.98136,158.90196 797.263,163.1272 810.70576,449.74559 732.36083,579.36334 410.78932,570.43322 Z"
         id="path981" />
    </g>
  </g>
</svg>
